<svg xmlns="http://www.w3.org/2000/svg" viewBox="0 0 200 140" role="img" aria-label="Letter thumbnail">
  <defs>
    <linearGradient id="bgLetter" x1="0" y1="0" x2="0" y2="1">
      <stop offset="0" stop-color="#fce7f3"/>
      <stop offset="1" stop-color="#fbcfe8"/>
    </linearGradient>
  </defs>
  <rect width="200" height="140" fill="url(#bgLetter)"/>
  <rect x="44" y="14" width="112" height="112" rx="6" fill="#ffffff" stroke="#cbd5e1" stroke-width="1"/>
  <rect x="106" y="22" width="40" height="3" rx="1" fill="#94a3b8"/>
  <rect x="98" y="28" width="48" height="3" rx="1" fill="#94a3b8"/>
  <rect x="102" y="34" width="44" height="3" rx="1" fill="#94a3b8"/>
  <rect x="54" y="48" width="36" height="3" rx="1" fill="#cbd5e1"/>
  <rect x="54" y="60" width="32" height="4" rx="1" fill="#0f172a"/>
  <rect x="54" y="68" width="48" height="3" rx="1" fill="#94a3b8"/>
  <rect x="54" y="80" width="92" height="3" rx="1" fill="#cbd5e1"/>
  <rect x="54" y="86" width="92" height="3" rx="1" fill="#cbd5e1"/>
  <rect x="54" y="92" width="78" height="3" rx="1" fill="#cbd5e1"/>
  <rect x="54" y="100" width="92" height="3" rx="1" fill="#cbd5e1"/>
  <rect x="54" y="106" width="68" height="3" rx="1" fill="#cbd5e1"/>
  <rect x="54" y="118" width="28" height="3" rx="1" fill="#475569"/>
</svg>
