<svg xmlns="http://www.w3.org/2000/svg" viewBox="0 0 200 140" role="img" aria-label="Meeting notes thumbnail">
  <defs>
    <linearGradient id="bgMeet" x1="0" y1="0" x2="0" y2="1">
      <stop offset="0" stop-color="#ede9fe"/>
      <stop offset="1" stop-color="#ddd6fe"/>
    </linearGradient>
  </defs>
  <rect width="200" height="140" fill="url(#bgMeet)"/>
  <rect x="44" y="14" width="112" height="112" rx="6" fill="#ffffff" stroke="#cbd5e1" stroke-width="1"/>
  <rect x="54" y="22" width="72" height="6" rx="2" fill="#5b21b6"/>
  <rect x="54" y="34" width="48" height="3" rx="1" fill="#cbd5e1"/>
  <rect x="54" y="46" width="32" height="4" rx="1" fill="#7c3aed"/>
  <text x="56" y="61" font-family="sans-serif" font-size="6" fill="#94a3b8">1.</text>
  <rect x="64" y="56" width="76" height="3" rx="1" fill="#cbd5e1"/>
  <text x="56" y="71" font-family="sans-serif" font-size="6" fill="#94a3b8">2.</text>
  <rect x="64" y="66" width="68" height="3" rx="1" fill="#cbd5e1"/>
  <text x="56" y="81" font-family="sans-serif" font-size="6" fill="#94a3b8">3.</text>
  <rect x="64" y="76" width="80" height="3" rx="1" fill="#cbd5e1"/>
  <rect x="54" y="92" width="40" height="4" rx="1" fill="#7c3aed"/>
  <circle cx="58" cy="104" r="1.5" fill="#94a3b8"/>
  <rect x="64" y="103" width="74" height="2.5" rx="1" fill="#cbd5e1"/>
  <circle cx="58" cy="112" r="1.5" fill="#94a3b8"/>
  <rect x="64" y="111" width="80" height="2.5" rx="1" fill="#cbd5e1"/>
  <circle cx="58" cy="120" r="1.5" fill="#94a3b8"/>
  <rect x="64" y="119" width="64" height="2.5" rx="1" fill="#cbd5e1"/>
</svg>
