<svg xmlns="http://www.w3.org/2000/svg" viewBox="0 0 200 140" role="img" aria-label="Project proposal thumbnail">
  <defs>
    <linearGradient id="bgProp" x1="0" y1="0" x2="0" y2="1">
      <stop offset="0" stop-color="#dcfce7"/>
      <stop offset="1" stop-color="#bbf7d0"/>
    </linearGradient>
  </defs>
  <rect width="200" height="140" fill="url(#bgProp)"/>
  <rect x="44" y="14" width="112" height="112" rx="6" fill="#ffffff" stroke="#cbd5e1" stroke-width="1"/>
  <rect x="68" y="20" width="64" height="7" rx="2" fill="#0f172a"/>
  <rect x="74" y="30" width="52" height="3" rx="1" fill="#16a34a"/>
  <rect x="54" y="46" width="32" height="4" rx="1" fill="#15803d"/>
  <rect x="54" y="56" width="92" height="3" rx="1" fill="#cbd5e1"/>
  <rect x="54" y="62" width="84" height="3" rx="1" fill="#cbd5e1"/>
  <rect x="54" y="74" width="28" height="4" rx="1" fill="#15803d"/>
  <rect x="54" y="86" width="92" height="34" rx="2" fill="none" stroke="#cbd5e1" stroke-width="1"/>
  <rect x="54" y="86" width="92" height="8" fill="#dcfce7"/>
  <line x1="54" y1="94" x2="146" y2="94" stroke="#cbd5e1" stroke-width="1"/>
  <line x1="54" y1="103" x2="146" y2="103" stroke="#cbd5e1" stroke-width="1"/>
  <line x1="54" y1="112" x2="146" y2="112" stroke="#cbd5e1" stroke-width="1"/>
  <line x1="84" y1="86" x2="84" y2="120" stroke="#cbd5e1" stroke-width="1"/>
  <line x1="116" y1="86" x2="116" y2="120" stroke="#cbd5e1" stroke-width="1"/>
</svg>
