<svg xmlns="http://www.w3.org/2000/svg" viewBox="0 0 200 140" role="img" aria-label="Resume thumbnail">
  <defs>
    <linearGradient id="bgResume" x1="0" y1="0" x2="0" y2="1">
      <stop offset="0" stop-color="#fef3c7"/>
      <stop offset="1" stop-color="#fde68a"/>
    </linearGradient>
  </defs>
  <rect width="200" height="140" fill="url(#bgResume)"/>
  <rect x="44" y="14" width="112" height="112" rx="6" fill="#ffffff" stroke="#cbd5e1" stroke-width="1"/>
  <rect x="64" y="22" width="72" height="8" rx="2" fill="#0f172a"/>
  <rect x="74" y="34" width="52" height="3" rx="1" fill="#94a3b8"/>
  <rect x="54" y="48" width="32" height="4" rx="1" fill="#7c2d12"/>
  <rect x="54" y="58" width="92" height="3" rx="1" fill="#cbd5e1"/>
  <rect x="54" y="64" width="84" height="3" rx="1" fill="#cbd5e1"/>
  <rect x="54" y="70" width="78" height="3" rx="1" fill="#cbd5e1"/>
  <rect x="54" y="82" width="28" height="4" rx="1" fill="#7c2d12"/>
  <circle cx="58" cy="94" r="1.5" fill="#94a3b8"/>
  <rect x="64" y="93" width="80" height="2.5" rx="1" fill="#cbd5e1"/>
  <circle cx="58" cy="102" r="1.5" fill="#94a3b8"/>
  <rect x="64" y="101" width="72" height="2.5" rx="1" fill="#cbd5e1"/>
  <circle cx="58" cy="110" r="1.5" fill="#94a3b8"/>
  <rect x="64" y="109" width="84" height="2.5" rx="1" fill="#cbd5e1"/>
  <circle cx="58" cy="118" r="1.5" fill="#94a3b8"/>
  <rect x="64" y="117" width="68" height="2.5" rx="1" fill="#cbd5e1"/>
</svg>
