<svg xmlns="http://www.w3.org/2000/svg" viewBox="0 0 200 140" role="img" aria-label="Sample document thumbnail">
  <defs>
    <linearGradient id="bgSample" x1="0" y1="0" x2="0" y2="1">
      <stop offset="0" stop-color="#eff6ff"/>
      <stop offset="1" stop-color="#dbeafe"/>
    </linearGradient>
  </defs>
  <rect width="200" height="140" fill="url(#bgSample)"/>
  <rect x="44" y="14" width="112" height="112" rx="6" fill="#ffffff" stroke="#cbd5e1" stroke-width="1"/>
  <rect x="54" y="24" width="60" height="6" rx="2" fill="#1e40af"/>
  <rect x="54" y="38" width="92" height="3" rx="1" fill="#cbd5e1"/>
  <rect x="54" y="46" width="80" height="3" rx="1" fill="#cbd5e1"/>
  <rect x="54" y="62" width="36" height="4" rx="1" fill="#2563eb"/>
  <rect x="54" y="74" width="92" height="3" rx="1" fill="#cbd5e1"/>
  <rect x="54" y="82" width="84" height="3" rx="1" fill="#cbd5e1"/>
  <rect x="54" y="96" width="92" height="20" rx="2" fill="none" stroke="#cbd5e1" stroke-width="1"/>
  <line x1="84" y1="96" x2="84" y2="116" stroke="#cbd5e1" stroke-width="1"/>
  <line x1="116" y1="96" x2="116" y2="116" stroke="#cbd5e1" stroke-width="1"/>
  <line x1="54" y1="106" x2="146" y2="106" stroke="#cbd5e1" stroke-width="1"/>
  <rect x="54" y="98" width="92" height="6" fill="#eff6ff"/>
</svg>
